HIERARCHY
ROOT Hips
{
	OFFSET -0.001795 -0.223333 0.028219
	CHANNELS 6 Xposition Yposition Zposition Zrotation Yrotation Xrotation 
	JOINT LeftUpLeg
	{
		OFFSET 0.069520 -0.091406 -0.006815
		CHANNELS 3 Zrotation Yrotation Xrotation
		JOINT LeftLeg
		{
			OFFSET 0.034277 -0.375199 -0.004496
			CHANNELS 3 Zrotation Yrotation Xrotation
			JOINT LeftFoot
			{
				OFFSET -0.013596 -0.397961 -0.043693
				CHANNELS 3 Zrotation Yrotation Xrotation
				JOINT LeftToe
				{
					OFFSET 0.026358 -0.055791 0.119288
					CHANNELS 3 Zrotation Yrotation Xrotation
					End Site
					{
						OFFSET 0.000000 0.000000 0.000000
					}
				}
			}
		}
	}
	JOINT RightUpLeg
	{
		OFFSET -0.067670 -0.090522 -0.004320
		CHANNELS 3 Zrotation Yrotation Xrotation
		JOINT RightLeg
		{
			OFFSET -0.038290 -0.382569 -0.008850
			CHANNELS 3 Zrotation Yrotation Xrotation
			JOINT RightFoot
			{
				OFFSET 0.015774 -0.398415 -0.042312
				CHANNELS 3 Zrotation Yrotation Xrotation
				JOINT RightToe
				{
					OFFSET -0.025372 -0.048144 0.123348
					CHANNELS 3 Zrotation Yrotation Xrotation
					End Site
					{
						OFFSET 0.000000 0.000000 0.000000
					}
				}
			}
		}
	}
	JOINT Spine
	{
		OFFSET -0.002533 0.108963 -0.026696
		CHANNELS 3 Zrotation Yrotation Xrotation
		JOINT Spine1
		{
			OFFSET 0.005487 0.135180 0.001092
			CHANNELS 3 Zrotation Yrotation Xrotation
			JOINT Spine2
			{
				OFFSET 0.001457 0.052922 0.025425
				CHANNELS 3 Zrotation Yrotation Xrotation
				JOINT Neck
				{
					OFFSET -0.002778 0.213870 -0.042857
					CHANNELS 3 Zrotation Yrotation Xrotation
					JOINT Head
					{
						OFFSET 0.005152 0.064970 0.051349
						CHANNELS 3 Zrotation Yrotation Xrotation
						End Site
						{
							OFFSET 0.000000 0.000000 0.000000
						}
					}
				}
				JOINT LeftShoulder
				{
					OFFSET 0.078845 0.121749 -0.034090
					CHANNELS 3 Zrotation Yrotation Xrotation
					JOINT LeftArm
					{
						OFFSET 0.090977 0.030469 -0.008868
						CHANNELS 3 Zrotation Yrotation Xrotation
						JOINT LeftForeArm
						{
							OFFSET 0.259612 -0.012772 -0.027456
							CHANNELS 3 Zrotation Yrotation Xrotation
							JOINT LeftHand
							{
								OFFSET 0.249234 0.008986 -0.001171
								CHANNELS 3 Zrotation Yrotation Xrotation
								End Site
								{
									OFFSET 0.000000 0.000000 0.000000
								}
							}
						}
					}
				}
				JOINT RightShoulder
				{
					OFFSET -0.081759 0.118833 -0.038615
					CHANNELS 3 Zrotation Yrotation Xrotation
					JOINT RightArm
					{
						OFFSET -0.096012 0.032551 -0.009143
						CHANNELS 3 Zrotation Yrotation Xrotation
						JOINT RightForeArm
						{
							OFFSET -0.253742 -0.013329 -0.021401
							CHANNELS 3 Zrotation Yrotation Xrotation
							JOINT RightHand
							{
								OFFSET -0.255298 0.007772 -0.005559
								CHANNELS 3 Zrotation Yrotation Xrotation
								End Site
								{
									OFFSET 0.000000 0.000000 0.000000
								}
							}
						}
					}
				}
			}
		}
	}
}
MOTION
Frames: 15
Frame Time: 0.050000
0.004524 0.949717 -0.111843 -6.252692 3.163864 11.506779 8.194514 -0.520892 -6.596133 7.700978 0.347161 -11.316707 5.033791 14.211220 20.416973 0.000000 0.000000 0.000000 -1.488965 1.621372 -18.405193 -0.607411 0.213346 3.465505 5.949291 5.573694 15.103674 0.000000 0.000000 0.000000 -2.683684 0.041667 4.222969 2.472852 -1.055947 -1.582818 2.643721 -3.664321 0.720693 -0.449289 0.814306 -9.116386 0.000000 0.000000 0.000000 -4.641560 -7.641175 2.778805 -43.777109 -24.543085 3.980677 -78.525675 -82.172585 76.791151 0.000000 0.000000 0.000000 6.059731 18.282251 6.661019 40.983298 40.307434 9.835383 67.140249 79.822780 60.429537 0.000000 0.000000 0.000000 
0.004383 0.950084 -0.114544 -6.412727 2.880368 11.545933 8.306379 -0.513664 -6.533914 7.790046 0.381684 -11.663387 5.136367 14.348961 20.770430 0.000000 0.000000 0.000000 -1.271513 1.678573 -18.707879 -0.617765 0.218317 3.537761 6.019893 5.515395 15.378204 0.000000 0.000000 0.000000 -2.813150 0.053715 4.204191 2.361110 -1.000737 -1.671333 2.928296 -3.732328 0.681115 -0.774842 1.017822 -9.257347 0.000000 0.000000 0.000000 -4.754530 -7.705664 2.831470 -43.812794 -24.735782 4.066834 -69.456869 -82.966515 68.903796 0.000000 0.000000 0.000000 6.241308 18.711111 6.812919 41.134552 41.068039 10.155194 62.044003 79.375080 55.239136 0.000000 0.000000 0.000000 
0.004786 0.950288 -0.116751 -6.484573 2.745900 11.616728 8.327568 -0.513071 -6.623268 7.828452 0.398387 -11.824177 5.182185 14.410803 20.947144 0.000000 0.000000 0.000000 -1.243969 1.685145 -18.702820 -0.639907 0.206482 3.183037 6.176997 5.702296 15.538274 0.000000 0.000000 0.000000 -2.913844 0.066453 4.008918 2.320898 -0.981228 -1.706156 2.979104 -3.845484 0.702376 -0.887196 1.091825 -9.546218 0.000000 0.000000 0.000000 -4.570857 -7.561287 2.786354 -43.879549 -25.591866 4.413753 -57.203496 -83.589472 57.875411 0.000000 0.000000 0.000000 6.395435 18.847012 6.852586 41.372034 41.648854 10.439358 58.398613 79.320250 51.828566 0.000000 0.000000 0.000000 
0.005480 0.950507 -0.118477 -6.570828 2.751610 11.502192 8.245482 -0.504655 -6.298452 8.045712 0.453788 -12.385636 5.109276 14.347879 21.201608 0.000000 0.000000 0.000000 -1.201510 1.683851 -18.635123 -0.805241 0.222768 3.049303 6.471681 6.086685 15.850667 0.000000 0.000000 0.000000 -3.103851 0.085646 3.712233 2.371822 -1.006289 -1.671119 3.271787 -4.287367 0.905548 -1.166287 1.249354 -9.730903 0.000000 0.000000 0.000000 -4.412716 -7.795188 2.921751 -43.324713 -26.408326 4.628581 -48.013376 -84.560470 50.247763 0.000000 0.000000 0.000000 6.664873 19.111642 6.906637 40.793441 41.814269 10.266710 56.769264 79.738192 50.503163 0.000000 0.000000 0.000000 
0.006364 0.950261 -0.119805 -6.467453 2.922880 11.324220 8.114326 -0.501800 -6.118327 7.977701 0.474537 -12.616284 4.993353 14.212421 21.125832 0.000000 0.000000 0.000000 -1.244499 1.652386 -18.379321 -0.995214 0.240760 2.892788 6.343958 5.942138 15.729028 0.000000 0.000000 0.000000 -3.241433 0.093628 3.744928 2.477232 -1.042448 -1.854570 3.259546 -4.563725 1.045721 -1.552856 1.491294 -9.724624 0.000000 0.000000 0.000000 -4.111890 -8.025838 3.021076 -42.691568 -27.694040 5.005114 -38.987162 -85.264475 42.348254 0.000000 0.000000 0.000000 6.820475 18.901405 6.799889 40.083757 41.628027 9.946866 60.613050 80.781538 54.793345 0.000000 0.000000 0.000000 
0.007288 0.950006 -0.120870 -6.274501 3.047177 11.090245 7.848262 -0.494233 -5.822772 7.953606 0.498826 -12.884599 4.880879 14.080671 21.071105 0.000000 0.000000 0.000000 -1.450835 1.593756 -17.999056 -1.091560 0.250432 2.826884 6.204178 5.959065 15.237307 0.000000 0.000000 0.000000 -3.422916 0.108240 3.502545 2.715277 -1.157051 -1.735134 3.190453 -4.857801 1.138843 -1.927356 1.727142 -9.831000 0.000000 0.000000 0.000000 -3.966618 -8.088928 3.055368 -41.535951 -28.411864 5.061909 -34.753627 -85.926296 38.873935 0.000000 0.000000 0.000000 7.070990 18.618843 6.659582 39.556384 41.529762 9.725419 66.441221 81.710926 60.926326 0.000000 0.000000 0.000000 
0.008180 0.949631 -0.121715 -6.029856 3.091867 10.909057 7.552750 -0.484036 -5.487383 7.875460 0.532330 -13.250660 4.810759 13.994924 21.047570 0.000000 0.000000 0.000000 -1.647682 1.547033 -17.717907 -0.987361 0.254064 3.208076 5.547259 5.414964 13.896468 0.000000 0.000000 0.000000 -3.527533 0.115005 3.418485 2.751987 -1.160932 -1.934755 3.175505 -4.887793 1.529392 -2.177187 1.889183 -9.700297 0.000000 0.000000 0.000000 -3.872825 -8.331430 3.149094 -40.070353 -28.882039 4.928826 -39.876202 -86.595721 44.203209 0.000000 0.000000 0.000000 7.406533 17.837021 6.344481 39.209730 41.152325 9.455189 79.100401 82.408149 73.698295 0.000000 0.000000 0.000000 
0.008945 0.949405 -0.122296 -5.787656 3.421411 10.762972 7.264475 -0.484111 -5.378994 7.840957 0.543109 -13.399600 4.598567 13.752179 20.935012 0.000000 0.000000 0.000000 -1.933336 1.483614 -17.419495 -0.777344 0.237015 3.482256 4.928486 4.811756 12.826895 0.000000 0.000000 0.000000 -3.685436 0.128158 3.080512 2.937480 -1.266466 -1.608948 3.155594 -5.250105 1.485295 -2.724004 2.240570 -9.809780 0.000000 0.000000 0.000000 -4.174833 -8.031964 3.049891 -38.515036 -29.255064 4.767255 -44.978596 -86.438914 49.042634 0.000000 0.000000 0.000000 7.895502 17.668996 6.259719 38.824940 40.710056 9.189815 87.038428 82.783558 81.761618 0.000000 0.000000 0.000000 
0.009508 0.949223 -0.122586 -5.581151 3.619288 10.632587 7.121976 -0.475618 -5.066420 7.624771 0.578201 -13.829985 4.447567 13.582784 20.945509 0.000000 0.000000 0.000000 -2.140744 1.424232 -16.996681 -0.556697 0.204767 3.450836 4.365542 4.169779 11.941898 0.000000 0.000000 0.000000 -3.755239 0.134440 2.739157 3.123817 -1.359443 -1.490375 3.086541 -5.135316 1.514251 -2.853055 2.337779 -9.484754 0.000000 0.000000 0.000000 -4.211745 -7.733539 2.907122 -37.170093 -28.767059 4.353391 -54.875797 -86.355757 58.377193 0.000000 0.000000 0.000000 8.596303 16.846414 5.958460 38.923519 39.647541 8.884773 93.306721 82.634937 87.943889 0.000000 0.000000 0.000000 
0.009896 0.949015 -0.122563 -5.310178 4.004841 10.467834 6.924288 -0.473912 -4.946489 7.423025 0.577292 -13.908626 4.217342 13.314850 20.787888 0.000000 0.000000 0.000000 -2.344962 1.353790 -16.452557 -0.460264 0.180696 3.202937 3.811511 3.412764 11.330628 0.000000 0.000000 0.000000 -3.816233 0.138219 2.460967 3.331631 -1.456339 -1.461420 2.918307 -5.166184 1.682981 -2.718208 2.261510 -9.345051 0.000000 0.000000 0.000000 -4.697008 -7.165360 2.668230 -35.291745 -28.106452 3.796117 -53.206422 -86.359179 56.627585 0.000000 0.000000 0.000000 9.279311 16.185700 5.721824 38.988457 38.531341 8.533951 96.961477 82.708550 91.809643 0.000000 0.000000 0.000000 
0.010097 0.949016 -0.122476 -5.114861 4.143140 10.263275 6.786608 -0.458339 -4.521361 7.250564 0.607370 -14.314516 4.084256 13.170502 20.862077 0.000000 0.000000 0.000000 -2.504291 1.286157 -15.767165 -0.547487 0.162798 2.469731 3.781167 3.352528 11.375792 0.000000 0.000000 0.000000 -3.779985 0.136071 2.182641 3.409314 -1.506391 -1.276674 2.952866 -5.025651 1.571287 -2.655455 2.227455 -9.026490 0.000000 0.000000 0.000000 -5.068524 -6.632241 2.434239 -33.608150 -27.202963 3.262599 -44.945237 -86.458569 48.600274 0.000000 0.000000 0.000000 9.809698 15.315776 5.371984 39.487106 37.367181 8.305891 95.120709 82.810278 90.109287 0.000000 0.000000 0.000000 
0.010136 0.948933 -0.122664 -4.929724 4.338217 9.992750 6.766818 -0.445644 -4.168746 6.916129 0.614540 -14.526913 3.947495 13.009807 20.813291 0.000000 0.000000 0.000000 -2.516310 1.234975 -15.117640 -0.853257 0.178643 1.913391 3.711161 3.252880 11.349226 0.000000 0.000000 0.000000 -3.616407 0.121267 2.302898 3.409448 -1.506804 -1.285246 2.805001 -5.039471 1.471501 -2.497502 2.133979 -9.251889 0.000000 0.000000 0.000000 -5.172553 -5.779969 2.072455 -31.782776 -26.649032 2.844592 -21.087629 -86.511277 25.804715 0.000000 0.000000 0.000000 10.112490 14.717719 5.122694 39.612276 36.485382 8.055913 92.306323 83.641072 88.180199 0.000000 0.000000 0.000000 
0.009900 0.948982 -0.123311 -4.845515 4.418397 9.838484 6.681654 -0.436456 -3.964104 6.919863 0.627628 -14.703114 3.861361 12.921645 20.890837 0.000000 0.000000 0.000000 -2.366793 1.218707 -14.717256 -1.239679 0.206571 1.470408 3.703200 3.223430 11.402773 0.000000 0.000000 0.000000 -3.598884 0.119167 2.235196 3.485904 -1.533188 -1.391952 2.917782 -4.916194 1.484728 -2.376462 2.062845 -9.257780 0.000000 0.000000 0.000000 -5.131044 -5.374470 1.893375 -30.385980 -26.711367 2.656093 5.821028 -85.576085 0.346442 0.000000 0.000000 0.000000 10.118567 14.234217 4.926952 39.553470 35.884629 7.833073 84.258687 84.830685 81.461326 0.000000 0.000000 0.000000 
0.009404 0.948962 -0.124375 -4.928332 4.626682 9.727254 6.907466 -0.440926 -3.927964 6.754629 0.628276 -14.792175 3.751860 12.802675 20.884324 0.000000 0.000000 0.000000 -2.178183 1.225852 -14.625159 -1.350953 0.218915 1.437792 3.622893 3.081073 11.423818 0.000000 0.000000 0.000000 -3.248890 0.092452 2.565201 3.364088 -1.483211 -1.328397 2.990611 -5.108993 0.989306 -2.046069 1.826030 -8.873205 0.000000 0.000000 0.000000 -4.942019 -5.058304 1.771012 -29.677617 -27.198787 2.707699 23.779216 -84.051887 -15.814603 0.000000 0.000000 0.000000 10.191235 14.410343 4.974445 39.090707 35.312865 7.568036 63.181956 85.776274 61.696767 0.000000 0.000000 0.000000 
0.008713 0.949084 -0.125646 -5.000475 4.643889 9.635480 7.115850 -0.442247 -3.887078 6.600348 0.628992 -14.856248 3.731762 12.789452 20.965034 0.000000 0.000000 0.000000 -2.043472 1.227641 -14.488221 -1.377450 0.211230 1.212099 3.651766 3.083331 11.548424 0.000000 0.000000 0.000000 -2.996329 0.074930 2.636339 3.314921 -1.465826 -1.265072 2.982939 -5.096946 0.624925 -1.864897 1.712778 -9.117822 0.000000 0.000000 0.000000 -4.845372 -5.227989 1.835637 -29.339987 -28.127439 2.902951 33.310419 -81.632520 -23.466690 0.000000 0.000000 0.000000 10.365779 14.573925 5.042148 39.056279 34.794807 7.426325 42.906780 84.671628 41.513505 0.000000 0.000000 0.000000 
